PathFileType  4	(X/Y/Z) C:\Users\MoBL3\Box\OA_GRF_OpenCap\GRF_Tracking_12_18_24\Subject3_walking1
DataRate	CameraRate	NumFrames	NumMarkers	Units	OrigDataRate	OrigDataStartFrame	OrigNumFrames
100.0		100.0		4		177		 mm	100.0	17	132
Frame#	Time	r_knee			r_shank_antsup			r_ankle			r_calc			r_5meta			r_toe			L_knee			L_shank_antsup			L_ankle			L_calc			L_5meta			L_toe			r_sh2			r_sh3			r_sh4			L_sh2			L_sh3			r_thigh1			r_thigh2			r_thigh3			r_thigh4			r_thigh5			L_thigh1			L_thigh2			L_thigh3			L_thigh4			r.ASIS			r.PSIS			L.ASIS			L.PSIS			C7			R_Shoulder			L_Shoulder			R_Sternum			L_Sternum			R_humerus			R_elbow_med			R_elbow_lat			R_forearm			R_wrist_radius			R_wrist_ulna			L_humerus			L_elbow_med			L_elbow_lat			L_forearm			L_wrist_radius			L_wrist_ulna			R_HJC			L_HJC			R_HJC_reg			L_HJC_reg			Neck			RShoulder			RElbow			RWrist			LShoulder			LElbow			LWrist			midHip			RHip			RKnee			RAnkle			LHip			LKnee			LAnkle			LBigToe			LSmallToe			LHeel			RBigToe			RSmallToe			RHeel			C7_study			r_shoulder_study			L_shoulder_study			r.ASIS_study			L.ASIS_study			r.PSIS_study			L.PSIS_study			r_knee_study			L_knee_study			r_mknee_study			L_mknee_study			r_ankle_study			L_ankle_study			r_mankle_study			L_mankle_study			r_calc_study			L_calc_study			r_toe_study			L_toe_study			r_5meta_study			L_5meta_study			r_thigh1_study			r_thigh2_study			r_thigh3_study			L_thigh1_study			L_thigh2_study			L_thigh3_study			r_sh1_study			r_sh2_study			r_sh3_study			L_sh1_study			L_sh2_study			L_sh3_study			RHJC_study			LHJC_study			r_lelbow_study			L_lelbow_study			r_melbow_study			L_melbow_study			r_lwrist_study			L_lwrist_study			r_mwrist_study			L_mwrist_study			Neck_offsetRemoved			RShoulder_offsetRemoved			RElbow_offsetRemoved			RWrist_offsetRemoved			LShoulder_offsetRemoved			LElbow_offsetRemoved			LWrist_offsetRemoved			midHip_offsetRemoved			RHip_offsetRemoved			RKnee_offsetRemoved			RAnkle_offsetRemoved			LHip_offsetRemoved			LKnee_offsetRemoved			LAnkle_offsetRemoved			LBigToe_offsetRemoved			LSmallToe_offsetRemoved			LHeel_offsetRemoved			RBigToe_offsetRemoved			RSmallToe_offsetRemoved			RHeel_offsetRemoved			C7_study_offsetRemoved			r_shoulder_study_offsetRemoved			L_shoulder_study_offsetRemoved			r.ASIS_study_offsetRemoved			L.ASIS_study_offsetRemoved			r.PSIS_study_offsetRemoved			L.PSIS_study_offsetRemoved			r_knee_study_offsetRemoved			L_knee_study_offsetRemoved			r_mknee_study_offsetRemoved			L_mknee_study_offsetRemoved			r_ankle_study_offsetRemoved			L_ankle_study_offsetRemoved			r_mankle_study_offsetRemoved			L_mankle_study_offsetRemoved			r_calc_study_offsetRemoved			L_calc_study_offsetRemoved			r_toe_study_offsetRemoved			L_toe_study_offsetRemoved			r_5meta_study_offsetRemoved			L_5meta_study_offsetRemoved			r_thigh1_study_offsetRemoved			r_thigh2_study_offsetRemoved			r_thigh3_study_offsetRemoved			L_thigh1_study_offsetRemoved			L_thigh2_study_offsetRemoved			L_thigh3_study_offsetRemoved			r_sh1_study_offsetRemoved			r_sh2_study_offsetRemoved			r_sh3_study_offsetRemoved			L_sh1_study_offsetRemoved			L_sh2_study_offsetRemoved			L_sh3_study_offsetRemoved			RHJC_study_offsetRemoved			LHJC_study_offsetRemoved			r_lelbow_study_offsetRemoved			L_lelbow_study_offsetRemoved			r_melbow_study_offsetRemoved			L_melbow_study_offsetRemoved			r_lwrist_study_offsetRemoved			L_lwrist_study_offsetRemoved			r_mwrist_study_offsetRemoved			L_mwrist_study_offsetRemoved			
		X1	Y1	Z1	X2	Y2	Z2	X3	Y3	Z3	X4	Y4	Z4	X5	Y5	Z5	X6	Y6	Z6	X7	Y7	Z7	X8	Y8	Z8	X9	Y9	Z9	X10	Y10	Z10	X11	Y11	Z11	X12	Y12	Z12	X13	Y13	Z13	X14	Y14	Z14	X15	Y15	Z15	X16	Y16	Z16	X17	Y17	Z17	X18	Y18	Z18	X19	Y19	Z19	X20	Y20	Z20	X21	Y21	Z21	X22	Y22	Z22	X23	Y23	Z23	X24	Y24	Z24	X25	Y25	Z25	X26	Y26	Z26	X27	Y27	Z27	X28	Y28	Z28	X29	Y29	Z29	X30	Y30	Z30	X31	Y31	Z31	X32	Y32	Z32	X33	Y33	Z33	X34	Y34	Z34	X35	Y35	Z35	X36	Y36	Z36	X37	Y37	Z37	X38	Y38	Z38	X39	Y39	Z39	X40	Y40	Z40	X41	Y41	Z41	X42	Y42	Z42	X43	Y43	Z43	X44	Y44	Z44	X45	Y45	Z45	X46	Y46	Z46	X47	Y47	Z47	X48	Y48	Z48	X49	Y49	Z49	X50	Y50	Z50	X51	Y51	Z51	X52	Y52	Z52	X53	Y53	Z53	X54	Y54	Z54	X55	Y55	Z55	X56	Y56	Z56	X57	Y57	Z57	X58	Y58	Z58	X59	Y59	Z59	X60	Y60	Z60	X61	Y61	Z61	X62	Y62	Z62	X63	Y63	Z63	X64	Y64	Z64	X65	Y65	Z65	X66	Y66	Z66	X67	Y67	Z67	X68	Y68	Z68	X69	Y69	Z69	X70	Y70	Z70	X71	Y71	Z71	X72	Y72	Z72	X73	Y73	Z73	X74	Y74	Z74	X75	Y75	Z75	X76	Y76	Z76	X77	Y77	Z77	X78	Y78	Z78	X79	Y79	Z79	X80	Y80	Z80	X81	Y81	Z81	X82	Y82	Z82	X83	Y83	Z83	X84	Y84	Z84	X85	Y85	Z85	X86	Y86	Z86	X87	Y87	Z87	X88	Y88	Z88	X89	Y89	Z89	X90	Y90	Z90	X91	Y91	Z91	X92	Y92	Z92	X93	Y93	Z93	X94	Y94	Z94	X95	Y95	Z95	X96	Y96	Z96	X97	Y97	Z97	X98	Y98	Z98	X99	Y99	Z99	X100	Y100	Z100	X101	Y101	Z101	X102	Y102	Z102	X103	Y103	Z103	X104	Y104	Z104	X105	Y105	Z105	X106	Y106	Z106	X107	Y107	Z107	X108	Y108	Z108	X109	Y109	Z109	X110	Y110	Z110	X111	Y111	Z111	X112	Y112	Z112	X113	Y113	Z113	X114	Y114	Z114	X115	Y115	Z115	X116	Y116	Z116	X117	Y117	Z117	X118	Y118	Z118	X119	Y119	Z119	X120	Y120	Z120	X121	Y121	Z121	X122	Y122	Z122	X123	Y123	Z123	X124	Y124	Z124	X125	Y125	Z125	X126	Y126	Z126	X127	Y127	Z127	X128	Y128	Z128	X129	Y129	Z129	X130	Y130	Z130	X131	Y131	Z131	X132	Y132	Z132	X133	Y133	Z133	X134	Y134	Z134	X135	Y135	Z135	X136	Y136	Z136	X137	Y137	Z137	X138	Y138	Z138	X139	Y139	Z139	X140	Y140	Z140	X141	Y141	Z141	X142	Y142	Z142	X143	Y143	Z143	X144	Y144	Z144	X145	Y145	Z145	X146	Y146	Z146	X147	Y147	Z147	X148	Y148	Z148	X149	Y149	Z149	X150	Y150	Z150	X151	Y151	Z151	X152	Y152	Z152	X153	Y153	Z153	X154	Y154	Z154	X155	Y155	Z155	X156	Y156	Z156	X157	Y157	Z157	X158	Y158	Z158	X159	Y159	Z159	X160	Y160	Z160	X161	Y161	Z161	X162	Y162	Z162	X163	Y163	Z163	X164	Y164	Z164	X165	Y165	Z165	X166	Y166	Z166	X167	Y167	Z167	X168	Y168	Z168	X169	Y169	Z169	X170	Y170	Z170	X171	Y171	Z171	X172	Y172	Z172	X173	Y173	Z173	X174	Y174	Z174	X175	Y175	Z175	X176	Y176	Z176	X177	Y177	Z177	

17	0.16000	164.652	439.061	-136.029	214.881	330.831	-164.622	159.097	57.597	-202.580	113.886	27.486	-260.371	272.602	12.941	-175.167	312.002	31.997	-216.574	-6.579	403.921	-419.548	-46.243	295.878	-380.844	-324.629	181.903	-390.960	-374.343	208.705	-345.963	-314.897	44.421	-379.714	-272.591	34.915	-328.894	212.629	220.204	-188.649	161.768	316.912	-110.536	143.401	209.577	-140.946	-68.937	350.919	-444.126	-169.450	284.211	-451.666	156.337	752.764	-117.608	195.965	649.052	-127.871	163.965	608.463	-83.012	67.349	712.522	-66.364	107.252	606.112	-75.028	85.707	690.490	-423.774	92.516	553.582	-426.666	-22.093	690.662	-449.436	-17.912	550.216	-440.521	131.900	896.898	-144.277	-56.603	928.320	-207.433	130.128	870.287	-384.346	-58.086	921.800	-324.458	-39.775	1377.427	-254.699	2.133	1340.933	-100.839	35.976	1359.571	-406.808	86.924	1329.461	-227.371	91.340	1328.614	-270.438	6.072	1210.981	-36.910	-67.024	1021.142	-111.078	-67.255	1029.011	-35.058	-47.200	907.372	-2.573	-41.631	803.828	7.553	-81.530	806.673	10.946	75.749	1220.758	-478.694	36.371	1016.081	-450.805	48.539	1036.158	-519.602	134.741	978.592	-536.702	226.695	887.148	-523.173	207.390	868.337	-541.654	41.800	821.430	-158.324	43.210	799.461	-346.427	61.652	816.899	-172.569	59.646	808.034	-331.730	42.383	1285.317	-251.433	32.703	1279.347	-99.758	-21.465	1028.746	-56.301	-50.350	801.159	-8.996	63.128	1291.344	-402.619	77.016	1042.737	-479.200	211.709	854.992	-509.770	66.757	848.135	-258.735	68.544	850.394	-157.267	160.179	449.441	-191.701	182.552	49.721	-245.257	70.592	846.219	-360.233	17.701	405.633	-361.001	-324.598	159.523	-356.720	-290.862	25.911	-340.402	-292.718	32.832	-342.175	-371.739	161.320	-355.412	323.946	-0.192	-210.905	317.817	2.173	-212.119	150.526	13.839	-260.324	-36.560	1333.444	-265.577	24.594	1319.721	-125.427	56.519	1324.887	-391.812	119.344	929.350	-118.126	105.173	903.561	-415.452	-38.509	940.190	-206.220	-43.088	930.258	-320.555	193.853	470.999	-151.544	7.571	433.547	-416.340	189.219	479.531	-260.083	18.554	431.422	-309.487	172.658	64.192	-189.351	-316.944	182.158	-388.323	184.916	72.341	-271.464	-297.879	171.438	-311.125	109.671	40.001	-237.119	-365.099	221.177	-348.710	292.842	26.288	-225.362	-296.288	46.530	-340.619	254.605	22.485	-179.815	-314.736	76.472	-390.486	182.915	740.299	-116.181	186.002	633.739	-111.514	78.777	710.543	-82.157	107.179	684.908	-429.230	65.292	585.224	-444.519	-2.736	703.622	-448.697	191.820	343.476	-157.165	216.310	225.780	-159.522	149.394	234.344	-150.825	-86.961	343.744	-416.921	-167.830	252.757	-416.071	-200.325	310.421	-421.390	38.818	855.711	-167.975	31.382	840.180	-346.832	-25.572	1047.192	-28.345	81.315	1059.528	-515.514	-32.051	1033.828	-96.441	66.857	1039.326	-439.903	-33.645	800.289	-21.068	236.215	882.205	-495.635	-94.805	810.731	-10.782	181.154	843.134	-521.075	46.266	1298.398	-255.024	36.585	1292.428	-103.349	-17.583	1041.827	-59.892	-46.468	814.239	-12.587	67.010	1304.425	-406.210	80.898	1055.818	-482.791	215.591	868.073	-513.361	70.639	861.216	-262.326	72.427	863.475	-160.858	164.061	462.521	-195.292	186.434	62.802	-248.848	74.474	859.299	-363.824	21.583	418.714	-364.592	-320.716	172.603	-360.311	-286.980	38.992	-343.993	-288.835	45.912	-345.766	-367.857	174.401	-359.003	327.828	12.889	-214.496	321.699	15.253	-215.711	154.408	26.920	-263.915	-32.678	1346.525	-269.168	28.476	1332.802	-129.018	60.401	1337.968	-395.403	123.226	942.431	-121.717	109.055	916.642	-419.043	-34.627	953.271	-209.811	-39.206	943.338	-324.146	197.735	484.079	-155.135	11.453	446.627	-419.931	193.101	492.612	-263.674	22.436	444.502	-313.078	176.540	77.272	-192.942	-313.062	195.239	-391.914	188.798	85.422	-275.055	-293.997	184.519	-314.716	113.553	53.082	-240.710	-361.217	234.258	-352.301	296.724	39.369	-228.954	-292.405	59.610	-344.210	258.487	35.566	-183.406	-310.854	89.552	-394.077	186.797	753.380	-119.772	189.884	646.819	-115.105	82.659	723.624	-85.748	111.061	697.988	-432.821	69.174	598.305	-448.110	1.146	716.703	-452.288	195.702	356.556	-160.756	220.193	238.861	-163.113	153.276	247.425	-154.416	-83.079	356.825	-420.512	-163.948	265.838	-419.662	-196.443	323.502	-424.981	42.700	868.792	-171.566	35.264	853.261	-350.423	-21.690	1060.273	-31.936	85.197	1072.608	-519.105	-28.169	1046.909	-100.032	70.739	1052.407	-443.494	-29.763	813.369	-24.659	240.097	895.286	-499.226	-90.923	823.812	-14.373	185.036	856.215	-524.666
18	0.17000	170.233	438.488	-135.077	219.612	329.689	-164.077	159.542	57.581	-202.802	113.999	27.344	-260.390	272.773	12.532	-175.162	312.214	31.375	-216.571	20.988	403.402	-419.839	-20.602	296.357	-380.680	-301.174	190.532	-394.021	-349.838	220.391	-349.958	-298.954	51.902	-381.362	-257.214	40.719	-330.339	215.693	219.166	-188.406	166.169	316.474	-110.167	146.200	209.473	-140.899	-40.706	351.278	-444.854	-142.871	287.186	-453.221	168.009	752.333	-115.819	205.761	647.632	-125.885	172.421	607.661	-81.677	77.669	713.772	-65.356	115.683	606.617	-73.851	102.077	692.124	-423.069	114.098	555.676	-427.150	-5.661	688.631	-448.647	3.761	548.305	-440.306	144.695	898.054	-143.319	-43.699	930.147	-205.757	141.938	872.074	-383.412	-45.951	922.908	-322.912	-27.393	1379.186	-253.446	15.614	1343.277	-99.899	47.507	1361.509	-405.812	99.467	1331.552	-226.875	103.645	1330.617	-269.901	21.102	1213.442	-35.856	-51.391	1023.047	-109.073	-50.459	1030.666	-33.108	-26.986	909.145	-1.268	-18.937	805.961	8.599	-58.502	807.587	12.518	86.642	1222.344	-477.489	45.184	1018.286	-448.286	57.264	1037.814	-517.362	141.625	977.870	-535.164	230.676	883.513	-522.354	210.670	865.346	-540.690	54.608	822.807	-157.143	55.274	801.002	-345.260	74.184	819.354	-170.796	71.132	809.522	-329.858	54.928	1286.890	-250.407	45.738	1280.933	-98.575	-6.278	1030.068	-54.919	-26.822	800.072	-7.733	75.174	1292.897	-401.774	85.077	1043.304	-477.358	215.375	852.014	-509.254	79.159	851.039	-257.292	80.269	853.539	-155.713	167.684	448.551	-190.742	183.703	48.989	-245.423	83.659	848.938	-358.882	48.388	407.606	-360.910	-303.918	163.878	-358.093	-275.939	28.464	-341.841	-277.535	35.469	-343.727	-352.186	167.038	-356.902	325.785	-0.716	-211.036	319.644	1.656	-212.250	150.464	13.076	-260.563	-24.155	1336.464	-263.851	37.266	1322.682	-124.371	67.940	1327.778	-390.532	131.648	933.051	-117.318	117.179	905.822	-414.307	-26.250	942.979	-204.913	-30.721	932.671	-319.233	200.301	471.704	-150.893	34.593	435.623	-416.467	195.808	480.394	-259.113	45.359	433.244	-309.226	173.452	64.404	-189.221	-296.613	190.265	-388.874	185.655	72.535	-271.252	-277.910	179.024	-311.709	110.216	40.290	-237.100	-342.879	231.558	-349.673	293.812	26.836	-224.806	-281.896	52.602	-340.700	255.502	22.919	-179.362	-298.660	83.752	-391.051	193.835	741.259	-114.820	194.916	634.251	-110.357	88.851	712.995	-80.694	125.090	690.617	-428.314	86.755	589.207	-443.894	14.527	705.106	-447.764	196.468	343.992	-156.482	219.128	225.972	-158.711	152.298	235.323	-150.400	-61.446	346.405	-417.252	-145.062	257.285	-416.288	-176.123	315.929	-421.990	51.439	858.753	-166.247	43.554	842.628	-345.256	-9.243	1049.179	-26.125	89.638	1061.680	-513.564	-16.287	1035.796	-94.684	74.899	1041.865	-437.785	-11.863	802.486	-19.830	239.928	879.757	-494.920	-73.489	811.668	-8.577	183.776	841.890	-520.141	58.811	1299.970	-253.998	49.620	1294.014	-102.166	-2.395	1043.149	-58.510	-22.939	813.153	-11.325	79.056	1305.978	-405.365	88.959	1056.385	-480.949	219.258	865.095	-512.845	83.041	864.119	-260.883	84.151	866.620	-159.304	171.566	461.632	-194.333	187.585	62.070	-249.014	87.541	862.019	-362.473	52.271	420.687	-364.501	-300.036	176.958	-361.684	-272.057	41.545	-345.432	-273.653	48.550	-347.318	-348.304	180.119	-360.493	329.667	12.365	-214.627	323.527	14.736	-215.841	154.347	26.157	-264.154	-20.273	1349.544	-267.442	41.148	1335.763	-127.962	71.822	1340.859	-394.123	135.530	946.132	-120.909	121.061	918.903	-417.898	-22.368	956.060	-208.504	-26.839	945.752	-322.824	204.183	484.784	-154.484	38.475	448.704	-420.058	199.690	493.474	-262.704	49.241	446.324	-312.817	177.334	77.485	-192.812	-292.731	203.346	-392.465	189.537	85.615	-274.843	-274.028	192.105	-315.300	114.098	53.371	-240.691	-338.997	244.638	-353.264	297.694	39.917	-228.397	-278.014	65.683	-344.291	259.384	35.999	-182.953	-294.778	96.833	-394.642	197.717	754.340	-118.411	198.798	647.332	-113.948	92.733	726.076	-84.285	128.972	703.698	-431.905	90.637	602.287	-447.485	18.409	718.186	-451.355	200.350	357.073	-160.073	223.010	239.052	-162.302	156.180	248.404	-153.991	-57.564	359.485	-420.843	-141.180	270.366	-419.879	-172.241	329.009	-425.581	55.322	871.833	-169.838	47.436	855.709	-348.847	-5.361	1062.260	-29.716	93.520	1074.761	-517.155	-12.405	1048.877	-98.275	78.781	1054.946	-441.376	-7.981	815.567	-23.421	243.810	892.838	-498.511	-69.607	824.749	-12.168	187.658	854.971	-523.732
19	0.18000	175.068	438.174	-133.900	223.704	328.824	-163.308	159.947	57.742	-202.991	114.121	27.429	-260.398	272.899	12.332	-175.096	312.356	31.057	-216.467	48.304	403.987	-420.097	5.333	297.654	-380.328	-276.611	198.359	-396.852	-324.813	230.132	-353.754	-279.247	59.180	-383.228	-238.256	46.951	-331.762	218.322	218.425	-187.952	169.913	316.208	-109.609	148.543	209.556	-140.720	-12.239	352.279	-445.480	-115.664	290.319	-454.796	179.156	752.088	-113.970	215.021	646.459	-123.740	180.212	607.127	-80.197	87.352	715.240	-64.390	123.512	607.373	-72.707	118.110	694.430	-422.571	135.200	558.620	-427.668	10.417	687.333	-447.875	25.086	547.315	-439.938	157.366	899.260	-142.539	-30.996	932.103	-203.986	153.506	874.082	-382.888	-34.078	924.179	-321.195	-15.106	1381.111	-252.134	29.164	1345.749	-98.920	58.690	1363.544	-404.930	111.934	1333.805	-226.437	115.793	1332.798	-269.461	36.179	1216.014	-34.822	-36.056	1025.074	-106.850	-33.718	1032.450	-30.999	-6.608	911.144	0.099	4.190	808.416	9.610	-35.049	808.739	14.164	97.311	1223.963	-476.286	53.873	1020.518	-445.847	66.002	1039.516	-515.164	148.312	977.224	-533.712	234.293	880.030	-521.584	213.570	862.549	-539.799	67.351	824.233	-156.123	67.034	802.755	-344.271	86.550	821.884	-169.231	82.364	811.119	-328.326	67.241	1288.649	-249.378	58.706	1282.703	-97.401	8.844	1031.214	-53.270	-3.135	799.611	-6.436	86.815	1294.640	-400.918	93.060	1044.104	-475.474	218.683	849.396	-508.766	91.212	854.279	-256.036	91.700	856.934	-154.327	174.417	447.656	-189.624	184.641	48.673	-245.520	96.318	852.076	-357.752	77.778	409.748	-360.165	-281.730	167.382	-359.431	-257.211	31.076	-343.590	-258.721	38.102	-345.559	-331.140	171.649	-358.174	327.349	-0.958	-211.178	321.193	1.413	-212.387	150.187	12.730	-260.716	-11.768	1339.845	-262.236	50.033	1325.870	-123.408	79.194	1330.961	-389.348	143.558	936.876	-116.556	128.937	908.518	-413.317	-14.294	946.079	-203.714	-18.632	935.432	-318.094	205.934	472.517	-150.317	61.485	438.502	-416.443	201.660	481.421	-258.214	71.994	435.999	-308.826	174.153	64.588	-189.054	-275.055	197.402	-389.352	186.352	72.657	-271.035	-256.583	185.776	-312.147	110.694	40.483	-237.123	-320.075	240.056	-350.333	294.788	27.393	-224.251	-264.206	58.520	-341.027	256.360	23.294	-178.861	-279.844	90.505	-391.764	204.119	742.290	-113.586	203.160	634.897	-109.305	98.339	715.688	-79.341	142.634	696.848	-427.430	107.884	593.814	-443.220	31.571	707.035	-446.907	200.487	344.652	-155.798	221.554	226.250	-157.861	154.714	236.295	-149.976	-35.597	349.469	-417.415	-121.450	261.704	-416.449	-151.439	321.131	-422.463	63.686	862.089	-164.644	55.426	845.516	-343.901	7.072	1051.387	-24.014	97.712	1064.061	-511.771	-0.531	1037.981	-93.093	82.676	1044.604	-435.837	10.417	805.065	-18.797	243.163	877.508	-494.386	-51.691	812.876	-6.483	185.918	840.966	-519.382	71.123	1301.730	-252.969	62.588	1295.784	-100.992	12.726	1044.295	-56.861	0.747	812.692	-10.027	90.697	1307.721	-404.509	96.942	1057.184	-479.065	222.565	862.477	-512.357	95.094	867.360	-259.627	95.582	870.015	-157.918	178.299	460.736	-193.215	188.523	61.753	-249.111	100.200	865.157	-361.343	81.660	422.829	-363.756	-277.848	180.463	-363.022	-253.329	44.156	-347.181	-254.839	51.183	-349.150	-327.258	184.730	-361.765	331.231	12.122	-214.769	325.075	14.494	-215.978	154.069	25.810	-264.307	-7.886	1352.926	-265.827	53.915	1338.951	-126.999	83.077	1344.042	-392.939	147.440	949.957	-120.147	132.819	921.599	-416.908	-10.411	959.160	-207.305	-14.750	948.513	-321.685	209.816	485.598	-153.908	65.367	451.583	-420.034	205.542	494.502	-261.806	75.876	449.080	-312.417	178.035	77.669	-192.645	-271.173	210.483	-392.943	190.234	85.738	-274.626	-252.701	198.857	-315.738	114.576	53.564	-240.714	-316.193	253.136	-353.924	298.670	40.474	-227.842	-260.324	71.601	-344.618	260.242	36.374	-182.452	-275.961	103.585	-395.355	208.001	755.371	-117.177	207.042	647.978	-112.896	102.221	728.768	-82.932	146.516	709.929	-431.021	111.766	606.895	-446.811	35.453	720.116	-450.498	204.369	357.733	-159.389	225.436	239.331	-161.452	158.596	249.376	-153.567	-31.715	362.550	-421.006	-117.568	274.784	-420.040	-147.557	334.212	-426.054	67.568	875.170	-168.235	59.308	858.597	-347.492	10.954	1064.468	-27.605	101.594	1077.142	-515.362	3.352	1051.061	-96.684	86.559	1057.685	-439.428	14.299	818.146	-22.388	247.045	890.589	-497.977	-47.809	825.957	-10.074	189.800	854.047	-522.973
20	0.19000	179.467	438.153	-132.637	227.309	328.209	-162.436	160.313	58.013	-203.131	114.236	27.665	-260.387	272.985	12.260	-174.981	312.427	30.931	-216.297	75.285	405.606	-420.300	31.453	299.651	-379.799	-251.143	205.195	-399.317	-299.458	237.741	-357.084	-255.914	65.828	-385.400	-215.652	53.119	-333.363	220.622	217.934	-187.385	173.214	316.102	-108.916	150.592	209.799	-140.410	16.252	353.877	-445.961	-88.054	293.516	-456.262	189.835	752.051	-112.207	223.862	645.623	-121.672	187.615	606.919	-78.713	96.596	716.862	-63.445	130.997	608.367	-71.646	133.889	697.358	-422.192	155.865	562.340	-428.129	26.223	686.725	-446.981	46.128	547.181	-439.385	169.893	900.578	-141.895	-18.522	934.139	-202.247	164.932	876.249	-382.670	-22.404	925.556	-319.415	-2.907	1383.150	-250.784	42.764	1348.242	-97.908	69.583	1365.580	-404.168	124.342	1336.119	-226.047	127.801	1335.062	-269.105	51.298	1218.574	-33.823	-20.987	1027.102	-104.412	-16.981	1034.228	-28.744	13.911	913.287	1.527	27.749	811.073	10.568	-11.224	810.066	15.860	107.729	1225.498	-475.101	62.425	1022.655	-443.485	74.740	1041.152	-513.005	154.819	976.587	-532.331	237.571	876.648	-520.872	216.147	859.887	-539.005	80.004	825.735	-155.241	78.606	804.654	-343.427	98.758	824.469	-167.861	93.475	812.793	-327.094	79.322	1290.513	-248.365	71.587	1284.593	-96.274	24.066	1032.257	-51.361	20.410	799.931	-5.176	98.075	1296.476	-400.058	101.165	1045.035	-473.541	221.770	847.075	-508.344	103.034	857.597	-254.992	103.054	860.324	-153.124	180.584	446.714	-188.429	185.231	48.759	-245.521	108.588	855.376	-356.875	105.578	412.047	-358.685	-258.045	170.106	-360.724	-234.926	33.334	-345.872	-236.532	40.329	-347.871	-308.765	175.069	-359.307	328.490	-1.061	-211.324	322.325	1.302	-212.521	149.629	12.849	-260.758	0.642	1343.335	-260.768	62.948	1329.042	-122.550	90.360	1334.200	-388.286	155.176	940.577	-115.843	140.551	911.419	-412.520	-2.558	949.225	-202.646	-6.738	938.288	-317.174	210.938	473.239	-149.831	88.084	441.910	-416.300	206.928	482.395	-257.443	98.333	439.416	-308.314	174.847	64.609	-188.861	-252.378	203.156	-389.793	187.076	72.574	-270.825	-233.997	191.258	-312.492	111.147	40.480	-237.180	-296.841	246.304	-350.734	295.808	27.752	-223.719	-243.262	63.747	-341.700	257.211	23.444	-178.337	-258.373	96.231	-392.675	213.916	743.170	-112.514	210.903	635.482	-108.394	107.412	718.374	-78.137	159.834	703.288	-426.650	128.636	598.759	-442.563	48.400	709.188	-446.161	204.036	345.265	-155.150	223.724	226.441	-157.030	156.804	237.097	-149.576	-9.556	352.667	-417.439	-97.121	265.685	-416.585	-126.422	325.705	-422.842	75.662	865.460	-163.202	67.116	848.578	-342.803	23.428	1053.583	-22.031	105.675	1066.434	-510.160	15.271	1040.141	-91.673	90.339	1047.307	-434.074	33.171	807.804	-17.964	246.106	875.297	-494.039	-29.422	814.160	-4.516	187.783	840.194	-518.798	83.204	1303.594	-251.956	75.469	1297.674	-99.865	27.948	1045.338	-54.953	24.292	813.012	-8.767	101.957	1309.556	-403.649	105.048	1058.116	-477.132	225.652	860.156	-511.935	106.916	870.677	-258.583	106.936	873.405	-156.715	184.466	459.795	-192.020	189.113	61.840	-249.112	112.470	868.456	-360.467	109.460	425.128	-362.276	-254.163	183.187	-364.315	-231.043	46.415	-349.463	-232.650	53.410	-351.463	-304.883	188.150	-362.898	332.372	12.020	-214.915	326.208	14.383	-216.112	153.511	25.930	-264.349	4.524	1356.416	-264.359	66.830	1342.123	-126.141	94.242	1347.281	-391.877	159.059	953.658	-119.434	144.434	924.500	-416.111	1.324	962.305	-206.237	-2.856	951.369	-320.765	214.820	486.320	-153.422	91.966	454.991	-419.891	210.810	495.476	-261.034	102.215	452.497	-311.905	178.729	77.690	-192.452	-248.496	216.237	-393.384	190.958	85.654	-274.416	-230.115	204.339	-316.083	115.029	53.561	-240.771	-292.959	259.385	-354.325	299.690	40.832	-227.310	-239.380	76.827	-345.291	261.093	36.525	-181.928	-254.491	109.312	-396.266	217.798	756.251	-116.105	214.785	648.563	-111.985	111.294	731.455	-81.728	163.716	716.369	-430.241	132.518	611.840	-446.154	52.282	722.269	-449.752	207.919	358.345	-158.741	227.606	239.522	-160.621	160.686	250.177	-153.167	-5.674	365.748	-421.030	-93.239	278.766	-420.176	-122.540	338.786	-426.433	79.544	878.541	-166.793	70.998	861.659	-346.394	27.310	1066.664	-25.622	109.557	1079.514	-513.751	19.153	1053.221	-95.264	94.221	1060.388	-437.665	37.053	820.884	-21.555	249.988	888.378	-497.630	-25.540	827.241	-8.107	191.665	853.275	-522.389
